<?xml version="1.0" encoding="UTF-8"?>
<svg version="1.1" viewBox="0 0 2048 2048" width="700" height="700" xmlns="http://www.w3.org/2000/svg">
<path transform="translate(0)" d="m0 0h2048v2048h-2048z" fill="#FEFEFE"/>
<path transform="translate(998,649)" d="m0 0h15l13 5 8 6 7 10 4 16v8l-3 12 43 5 23 5 18 6 19 8 20 10 19 12 13 10 15 13 16 16 11 14 10 14 9 15 8 15 9 23 7 23 4 19 1 7v21l-4 6-8 7-5 2-24 3h-11l1-5 4-9v-19l-3-18-6-23-9-25-8-16-8-14-12-17-11-13-9-10-5-6-11-9-13-11-15-10-22-12-18-8-22-8-13-3h-3l12 9 10 8 12 11 11 11 9 11 10 13 13 21 14 27 9 24 8 26 7 34 4 31-2 9-7 9-6 4-16 3-101 14-96 13-42 6-33 5-40 5h-59l-20-1-9-6-4-5v-11l4-6 6-5 4-1 49-1-1-7v-22h-58l-64-1-7-4-4-5-2-5 1-8 3-6 7-5 41-1h86v-8l4-21-65-2-8-7-3-5v-8l3-6 9-7 48-1h30l2-6 10-19 1-3-7-1-56-1-18-1-7-5-4-9 1-9 9-9 3-1 104-1 5-2 13-13 11-9 4-4-28-1-98-1-7-3-5-4-2-4v-10l3-6 7-6 70-1 115-1 14-1 16-5h2l-4-11-4-9-1-4v-13l4-11 6-8 8-7z" fill="#FE8204"/>
<path transform="translate(621,1164)" d="m0 0 5 1 24 15 17 10 28 15 17 9 36 16 20 8 34 12 41 12 29 7 40 8 39 6 37 4 17 1h104l37-3 39-5 34-6 43-10 32-9 35-11 32-12 25-12 33-15 19-10 17-11 5-1-1 6-12 14-12 13-9 10-7 8-13 13-28 22-23 15-17 10-20 11-28 13-29 11-27 9-34 9-31 6-45 6-25 2h-91l-35-3-50-7-39-9-23-6-49-16-12-4-6 1-11 9-10 11-16 23-14 26-8 18-8 25-4 17-2 21-2 43-2 14-5 16-10 19-11 12-9 8-14 8-11 4-5 1h-34l-21-5-14-6-12-8-10-9-8-8-8-13-8-18-4-15-3-18v-19l2-20 6-27 7-20 8-18 10-19 12-18 10-13 15-16 14-14 17-13 19-12 15-8 32-14-1-5-13-13-8-7-10-11-9-11-11-13-14-19-10-15z" fill="#FE8204"/>
<path transform="translate(805,1035)" d="m0 0h496l12 3 8 6 5 6 3 9v47l-3 9-6 9-12 7-13 1h-34l-29-1-2-9-3-16-7-16-11-12-14-8-10-4-4-1h-23l-12 3-13 7-10 9-7 10-5 11-3 19-1 7h-113l-2-11-3-14-6-14-9-11-14-10-13-5-4-1h-22l-15 4-12 7-9 8-7 10-5 11-2 9-2 17-15 1h-22l-38-1-9-4-10-9-3-7v-55l4-8 5-6 8-5 3-1z" fill="#64462F"/>
<path transform="translate(379,1077)" d="m0 0h14l11 4 10 8 7 9 11 23 7 16 8 11 3 3v2l4 2 9 9 18 13 17 10 3 3-1 3-11 2-8 1h-34l-23-3-24-7-21-11-9-7-12-12-7-11-4-13 1-21 4-12 6-10 7-6 10-5z" fill="#FE8204"/>
<path transform="translate(1156,1073)" d="m0 0h25l12 4 10 7 9 9 6 10 4 12v19l-4 13-8 13-7 7-10 6-9 4-5 1h-15l-12-2-14-7-13-13-8-16-2-18 3-14 6-12 7-9 10-8 11-5z" fill="#66472F"/>
<path transform="translate(918,1073)" d="m0 0h25l12 4 11 8 8 8 6 10 4 12v19l-4 13-6 10-9 10-11 7-12 4h-16l-12-2-12-6-10-9-6-7-6-12-2-8v-17l3-12 7-12 8-9 11-7z" fill="#66472F"/>
<path transform="translate(460,1254)" d="m0 0 13 1 19 5 16 6 10 5-1 4-14 10-9 11-12 13-8 6-11 4-13-1-10-5-6-7-5-10-1-14 2-9 5-8 7-6 11-4z" fill="#FE8204"/>
<path transform="translate(711,1271)" d="m0 0h9l10 6 10 7 1 3-14 8-20 10-13 11-9 10-10 15-8 14-12 23-13 26-7 11-3-1v-12l6-31 10-29 8-16 9-16 8-10 11-12 10-8z" fill="#FEFEFE"/>
<path transform="translate(617,854)" d="m0 0h78l8 6 4 7v8l-6 8-4 4h-80l-8-4-5-10 2-10 6-7z" fill="#FE8204"/>
<path transform="translate(805,1218)" d="m0 0 8 1 36 8 47 9-2 5-6 9-11 8-11 4-8 1-17-3-12-5-10-8-7-9-5-13z" fill="#FE8204"/>
<path transform="translate(677,789)" d="m0 0h33l6 3 6 7 2 4-1 9-7 8-3 2h-39l-8-7-3-9 3-10 7-6z" fill="#FE8204"/>
<path transform="translate(662,983)" d="m0 0h22l8 3 6 7 2 4-1 9-6 8-12 4-20-1-8-4-1-3h-2l-3-7 1-9 7-8z" fill="#FE8204"/>
<path transform="translate(1164,1106)" d="m0 0 13 1 7 6 4 9-1 10-4 7-7 4-4 1h-8l-7-4-5-6-2-6v-7l4-8 7-6z" fill="#FEFEFE"/>
<path transform="translate(927,1106)" d="m0 0 11 1 6 4 5 7 1 3v8l-5 10-6 4-3 1h-9l-8-4-5-6-1-2v-14l6-8 4-3z" fill="#FEFEFE"/>
<path transform="translate(454,1266)" d="m0 0h7l-1 11-4 13-6 1-7-2-1-2v-11l3-5 6-4z" fill="#FEFEFE"/>
</svg>
